<?xml version="1.0" encoding="utf-8"?>
<!-- Generator: Adobe Illustrator 27.0.0, SVG Export Plug-In . SVG Version: 6.00 Build 0)  -->
<svg version="1.1" xmlns="http://www.w3.org/2000/svg" xmlns:xlink="http://www.w3.org/1999/xlink" x="0px" y="0px"
	 viewBox="0 0 1400 800" style="enable-background:new 0 0 1400 800;" xml:space="preserve">
<style type="text/css">
	.st0{fill:#E2EBA8;stroke:#000000;stroke-miterlimit:10;}
	.st1{fill:#F5F3E7;stroke:#E6E7E8;stroke-width:0.25;stroke-miterlimit:10;}
	.st2{fill:#F5F3E7;stroke:#DCDDDE;stroke-miterlimit:10;}
	.st3{fill:#E6E5D8;}
	.st4{fill:#F5F3E7;}
	.st5{fill:#515254;}
	.st6{font-family:'Avenir-LightOblique';}
	.st7{font-size:75px;}
	.st8{font-family:'QuiverleafCF-ExtraBold';}
	.st9{font-size:166px;}
	.st10{letter-spacing:6;}
	.st11{fill:#3B2900;}
	.st12{opacity:0.1;fill:#ECF4DE;}
	.st13{opacity:0.25;fill:#ECF4DE;}
	.st14{opacity:0.5;fill:#ECF4DE;}
	.st15{opacity:0.7;fill:#ECF4DE;}
</style>
<g id="Layer_2">
	<rect x="-1.6" y="0.65" class="st0" width="1402.6" height="799.65"/>
</g>
<g id="Layer_1">
	<text transform="matrix(1 0 0 1 62.1358 737.7731)" class="st5 st6 st7">Drink to remember</text>
	<text transform="matrix(1 0 0 1 68.5362 205.1609)"><tspan x="0" y="0" class="st8 st9 st10">Miami </tspan><tspan x="0" y="199.2" class="st8 st9 st10">Memory </tspan><tspan x="0" y="398.4" class="st8 st9 st10">Machine</tspan></text>
</g>
<g id="Layer_3">
	<path class="st1" d="M765.3,349.54l454.24,4.23c0,0,50.36,379.53-222.89,382.4C723.39,739.05,765.3,349.54,765.3,349.54z"/>
	<path class="st2" d="M1219.54,353.76c0,59.39-100.39,91.9-218.67,91.9S765.3,408.93,765.3,349.54s106.73-90.85,225.01-90.85
		S1219.54,294.37,1219.54,353.76z"/>
	<g>
		<path class="st3" d="M992.42,302.13c81.61,0,158.56,22.65,170.36,60.96c1.02-3.45,1.57-7.04,1.57-10.78
			c0-44.54-83.22-71.3-171.92-71.3c-88.71,0-168.75,23.59-168.75,68.14c0,3.57,0.57,7.03,1.66,10.38
			C837.15,321.94,911.14,302.13,992.42,302.13z"/>
		<path class="st3" d="M1000.34,421.24c81.27,0,151.26-20.47,162.44-58.15c-11.8-38.31-88.75-60.96-170.36-60.96
			c-81.27,0-155.27,19.81-167.1,57.38C837.77,397.92,918.74,421.24,1000.34,421.24z"/>
	</g>
	<path class="st4" d="M1316.34,460.13c-0.65-17.75-4.39-35.85-15.63-50.05c-9.94-12.56-25.08-20.93-40.83-23.51
		c-39.73-6.52-78.67,19.44-94.81,54.99c-1.02,2.24-1.18,4.7-0.33,6.79c-2.08,2.41-2.8,5.65-1.04,8.73c1.83,3.22,7.02,5.1,10.26,2.69
		c5.81-4.33,11.3-8.99,16.38-14.09c0.27,0.19,0.55,0.35,0.83,0.51c-0.65,0.38-1.29,0.76-1.93,1.14c-8.33,4.87-0.79,17.84,7.57,12.95
		c10.75-6.28,21.36-13.04,32.54-18.53c9.54-4.68,20.63-8.24,31.34-6.15c17.33,3.37,23.61,19.13,26.31,35.06
		c-3.69,20.65-9.11,41.17-16.21,60.9c-2.14,5.96-4.52,11.82-7.08,17.6c-1.76,1.76-3.44,3.58-4.84,5.66
		c-1.38,2.04-2.43,4.26-3.2,6.57c-2.53,2.08-4.93,4.42-7.26,6.95c-8.06,8.75-15.87,16.94-25.76,23.7
		c-10.44,7.14-21.53,13.69-32.85,19.32c-11.05,5.5-23.73,10.11-36.28,8.41c-4.04-0.55-8.01,0.97-9.23,5.24
		c-0.38,1.32-0.29,2.87,0.17,4.33c-2.63,2.58-3,7.06-1.1,10.02c-2.03,2.2-2.46,5.7-1.32,8.49c-12.03,1.98-24.3,2.63-36.47,3.27
		c-9.6,0.5-9.66,15.51,0,15c18.84-0.99,38.04-2.01,56.26-7.32c18.15-5.29,34.13-15.38,49.74-25.76
		c29.78-19.82,58.41-42.59,77.72-73.2C1307.89,530.36,1317.61,494.96,1316.34,460.13z"/>
</g>
<g id="Layer_4">
</g>
<g id="Layer_5">
</g>
<g id="Layer_6">
</g>
</svg>
